<svg id="SHIELD_Chapter" data-name="SHIELD Chapter" xmlns="http://www.w3.org/2000/svg" width="1388.97" height="390.49" viewBox="0 0 1388.97 390.49">
  <defs>
    <style>
      .cls-1 {
        fill: #fff;
      }
    </style>
  </defs>
  <path id="Shield_Icon" data-name="Shield Icon" class="cls-1" d="M574.25,464.33a247.67,247.67,0,0,1-54.39-59.57L349,404.85A179.77,179.77,0,0,1,253.44,493c3.25,40.14,22.31,233.27,149.2,290.93a176.68,176.68,0,0,0,33.58,11.32,189,189,0,0,0,37.31-13.81c126.55-62.8,142.69-250.71,145.31-289.22A245.78,245.78,0,0,1,574.25,464.33Zm-70.88,117.1h-46V705.78H415.08V581.43h-46V539.15h46V494.38h42.28v44.77h46Z" transform="translate(-253.44 -404.76)"/>
  <g>
    <path class="cls-1" d="M775.94,504.79c0-6.45-3.52-10-10-10H723.75c-6.45,0-10,3.52-10,10v19.94c0,6.45,3.52,8.5,10,10l54.54,11.73c22.87,5,42.22,18.76,42.22,42.22v38.12c0,24.63-17,41.64-41.64,41.64H713.19c-24.63,0-41.64-17-41.64-41.64v-27H712.6v18.77c0,6.45,3.52,10,10,10h45.75c6.45,0,10-3.52,10-10V596.27c0-6.45-3.52-8.5-10-10l-54.54-11.72c-22.87-5-42.23-18.77-42.23-42.23V496.58c0-24.63,17-41.64,41.64-41.64h62.17c24.63,0,41.63,17,41.63,41.64v24.63h-41Z" transform="translate(-253.44 -404.76)"/>
    <path class="cls-1" d="M860.68,456.11h42.23v83.28h72.72V456.11h42.22V667.24H975.63v-88H902.91v88H860.68Z" transform="translate(-253.44 -404.76)"/>
    <path class="cls-1" d="M1064.18,456.11h42.22V667.24h-42.22Z" transform="translate(-253.44 -404.76)"/>
    <path class="cls-1" d="M1290.84,456.11V496H1195v43.4h77.71v39.88H1195v48.09h95.89v39.88H1152.73V456.11Z" transform="translate(-253.44 -404.76)"/>
    <path class="cls-1" d="M1370.3,456.11V627.36h88.55v39.88H1328.07V456.11Z" transform="translate(-253.44 -404.76)"/>
    <path class="cls-1" d="M1600.77,456.11c24.63,0,41.64,17,41.64,41.64V625.6c0,24.63-17,41.64-41.64,41.64h-110V456.11Zm-10.55,171.25c6.45,0,10-3.52,10-10V506c0-6.45-3.52-10-10-10H1533V627.36Z" transform="translate(-253.44 -404.76)"/>
  </g>
  <g>
    <path class="cls-1" d="M706.81,699.75A2.51,2.51,0,0,0,704,697H691.23a2.51,2.51,0,0,0-2.79,2.79v31.81a2.51,2.51,0,0,0,2.79,2.79H704a2.51,2.51,0,0,0,2.79-2.79v-7.21h11.81v9.51c0,6.89-4.75,11.64-11.64,11.64h-18.7c-6.89,0-11.64-4.75-11.64-11.64V697.45c0-6.89,4.75-11.64,11.64-11.64H707c6.89,0,11.64,4.75,11.64,11.64V707H706.81Z" transform="translate(-253.44 -404.76)"/>
    <path class="cls-1" d="M831.11,686.14h11.81v23.28h20.33V686.14h11.81v59H863.25v-24.6H842.92v24.6H831.11Z" transform="translate(-253.44 -404.76)"/>
    <path class="cls-1" d="M997.06,745.18H984.84l19-59h13.78l19,59H1024l-3.85-13.29H1001Zm7.21-24.44h12.63l-6.23-21.65Z" transform="translate(-253.44 -404.76)"/>
    <path class="cls-1" d="M1176.62,686.14c6.89,0,11.64,4.75,11.64,11.64V712.7c0,6.89-4.75,11.65-11.64,11.65h-18.37v20.83h-11.81v-59Zm-2.95,27.06a2.52,2.52,0,0,0,2.79-2.79V700.08a2.51,2.51,0,0,0-2.79-2.79h-15.42V713.2Z" transform="translate(-253.44 -404.76)"/>
    <path class="cls-1" d="M1321.91,697.12v48.06H1310.1V697.12h-15.42v-11h42.64v11Z" transform="translate(-253.44 -404.76)"/>
    <path class="cls-1" d="M1486.46,686.14v11.15h-26.81v12.13h21.73v11.16h-21.73V734h26.81v11.16h-38.62v-59Z" transform="translate(-253.44 -404.76)"/>
    <path class="cls-1" d="M1629.7,745.18l-9.51-21.9h-9.51v21.9h-11.81v-59H1629c6.89,0,11.65,4.75,11.65,11.64v13.86c0,5.57-3.12,9.76-8,11.15l9.84,22.39Zm-.9-45.1a2.51,2.51,0,0,0-2.79-2.79h-15.33v15H1626a2.51,2.51,0,0,0,2.79-2.78Z" transform="translate(-253.44 -404.76)"/>
  </g>
</svg>
